<?xml version="1.0" encoding="utf-8"?>
<!-- Generator: Adobe Illustrator 16.0.0, SVG Export Plug-In . SVG Version: 6.00 Build 0)  -->
<!DOCTYPE svg PUBLIC "-//W3C//DTD SVG 1.1//EN" "http://www.w3.org/Graphics/SVG/1.1/DTD/svg11.dtd">
<svg version="1.1" id="Layer_1" xmlns="http://www.w3.org/2000/svg" xmlns:xlink="http://www.w3.org/1999/xlink" x="0px" y="0px"
	 width="212.983px" height="56.21px" viewBox="0 0 212.983 56.21" enable-background="new 0 0 212.983 56.21" xml:space="preserve">
<g>
	<path fill="#F7901E" d="M41.867,33.921v-2.07c-1.718,1.716-3.347,2.333-6.252,2.333c-2.991,0-4.622-0.529-6.119-1.981
		c-1.101-1.056-1.628-2.684-1.628-4.401c0-3.831,2.685-6.252,7.527-6.252h6.472v-2.069c0-3.125-1.541-4.753-5.548-4.753
		c-2.729,0-4.137,0.704-5.459,2.51l-2.156-1.981c1.893-2.51,4.095-3.258,7.66-3.258c5.855,0,8.673,2.552,8.673,7.22v14.702H41.867z
		 M41.867,23.928h-6.03c-3.259,0-4.887,1.275-4.887,3.83c0,2.509,1.541,3.697,5.018,3.697c1.805,0,3.39-0.176,4.798-1.452
		c0.748-0.704,1.102-1.937,1.102-3.742V23.928z"/>
	<path fill="#F7901E" d="M57.839,33.921c-3.787,0-5.503-2.466-5.503-5.767V2.578h3.169v25.444c0,2.113,0.705,3.17,2.907,3.17h1.716
		v2.729H57.839z"/>
	<path fill="#F7901E" d="M73.253,33.921h-2.817l-7.924-21.66h3.434l5.899,17.391l5.943-17.391h3.434L73.253,33.921z"/>
	<path fill="#F7901E" d="M98.084,33.921v-2.07c-1.717,1.716-3.345,2.333-6.252,2.333c-2.993,0-4.621-0.529-6.119-1.981
		c-1.099-1.056-1.628-2.684-1.628-4.401c0-3.831,2.686-6.252,7.528-6.252h6.471v-2.069c0-3.125-1.541-4.753-5.546-4.753
		c-2.729,0-4.138,0.704-5.46,2.51l-2.156-1.981c1.894-2.51,4.094-3.258,7.658-3.258c5.855,0,8.673,2.552,8.673,7.22v14.702H98.084z
		 M98.084,23.928h-6.032c-3.256,0-4.886,1.275-4.886,3.83c0,2.509,1.542,3.697,5.019,3.697c1.806,0,3.391-0.176,4.799-1.452
		c0.748-0.704,1.101-1.937,1.101-3.742V23.928z"/>
	<path fill="#F7901E" d="M121.928,33.921V20.583c0-3.831-2.068-5.767-5.327-5.767c-3.256,0-5.37,1.981-5.37,5.767v13.338h-3.168
		v-21.66h3.168v2.378c1.541-1.761,3.653-2.641,6.074-2.641c2.334,0,4.228,0.703,5.548,2.024c1.539,1.497,2.245,3.522,2.245,6.031
		v13.867H121.928z"/>
	<path fill="#F7901E" d="M131.843,33.921v-21.66h3.172v21.66H131.843z"/>
	<path fill="#F7901E" d="M141.26,33.921v-2.729l12.062-16.112h-11.401v-2.818h15.055v2.686l-12.104,16.157h12.104v2.817H141.26z"/>
	<path fill="#F7901E" d="M164.298,23.928c0,4.754,2.202,7.484,6.385,7.484c2.509,0,3.961-0.749,5.679-2.465l2.156,1.892
		c-2.201,2.201-4.27,3.346-7.924,3.346c-5.768,0-9.465-3.434-9.465-11.093c0-7.044,3.389-11.093,8.891-11.093
		c5.636,0,8.895,4.006,8.895,10.521v1.409H164.298z M175.083,17.941c-0.924-1.981-2.729-3.258-5.063-3.258
		c-2.33,0-4.137,1.277-5.062,3.258c-0.527,1.145-0.572,1.849-0.66,3.608h11.489C175.656,19.79,175.613,19.086,175.083,17.941z"/>
	<g>
		<path fill="#939598" d="M13.114,29.606c2.275,0,3.76-0.953,4.007-5.389H9.066C9.328,28.639,10.879,29.606,13.114,29.606z"/>
		<g>
			<path fill="#939598" d="M12.15,22.109c0.66-0.66,0.66-1.726,0-2.386c-0.658-0.655-1.725-0.655-2.383,0
				c-0.595,0.597-0.652,1.522-0.174,2.182l-0.366,0.742l0.742-0.365C10.628,22.761,11.556,22.703,12.15,22.109z"/>
			<path fill="#939598" d="M8.129,17.418c-0.464-0.462-1.213-0.462-1.676,0c-0.463,0.464-0.463,1.214,0,1.678
				c0.417,0.415,1.068,0.454,1.531,0.12l0.519,0.26l-0.256-0.525C8.585,18.487,8.546,17.835,8.129,17.418z"/>
			<path fill="#939598" d="M10.282,14.88c0.295-0.296,0.295-0.775,0-1.074c-0.297-0.292-0.774-0.292-1.068,0
				c-0.268,0.27-0.292,0.685-0.081,0.98l-0.163,0.331l0.333-0.161C9.6,15.172,10.014,15.147,10.282,14.88z"/>
		</g>
	</g>
	<path fill="#F7901E" d="M18.566,12.09v2.569c-0.528-0.683-1.073-1.196-1.637-1.598l-1.892,1.89
		c2.998,0.991,3.484,4.423,3.484,7.862c0,4.075-0.667,8.151-5.408,8.151c-4.739,0-5.45-4.077-5.45-8.151
		c0-0.165,0.004-0.328,0.006-0.494l-3.084,3.087c0.235,2.551,0.918,4.856,2.546,6.487c1.153,1.152,3.059,1.951,5.273,1.951
		c2.348,0,4.343-0.576,6.117-2.835v3.412c0,3.723-1.774,6.688-5.982,6.688c-2.528,0-3.633-0.751-5.229-2.168L5.23,40.977
		c2.301,2.08,4.117,2.924,7.397,2.924c5.715,0,9.082-3.945,9.082-9.349V12.09H18.566z"/>
	<path fill="#939598" d="M205.051,2.578v12.608v8.126c0,4.646-2.903,7.728-7.31,7.866h-0.568c-4.405-0.138-7.31-3.22-7.31-7.866
		v-8.126V2.578h-3.345v12.608v8.391c0,6.148,4.476,10.455,10.654,10.594h0.568c6.181-0.139,10.656-4.446,10.656-10.594v-8.391V2.578
		H205.051z"/>
	<g>
		<g>
			<path fill="#939598" d="M40.417,49.782c-0.261,0.261-0.694,0.433-1.207,0.433c-0.543,0-0.986-0.131-1.398-0.644v2.797h-0.726
				v-7.165h0.726v0.583c0.412-0.513,0.845-0.644,1.398-0.644c0.513,0,0.946,0.171,1.207,0.433c0.494,0.494,0.604,1.309,0.604,2.103
				C41.022,48.474,40.912,49.279,40.417,49.782z M39.059,45.787c-1.087,0-1.247,0.926-1.247,1.892c0,0.966,0.16,1.893,1.247,1.893
				c1.077,0,1.238-0.926,1.238-1.893C40.297,46.712,40.136,45.787,39.059,45.787z"/>
			<path fill="#939598" d="M45.744,49.651c-0.342,0.352-0.815,0.563-1.419,0.563s-1.077-0.212-1.419-0.563
				c-0.504-0.513-0.604-1.208-0.604-1.973c0-0.765,0.1-1.469,0.604-1.972c0.342-0.352,0.815-0.564,1.419-0.564
				s1.077,0.212,1.419,0.564c0.503,0.503,0.604,1.207,0.604,1.972C46.347,48.444,46.247,49.138,45.744,49.651z M45.231,46.149
				c-0.242-0.241-0.554-0.362-0.906-0.362s-0.654,0.121-0.896,0.362c-0.362,0.362-0.403,0.966-0.403,1.529
				c0,0.554,0.03,1.158,0.403,1.53c0.241,0.241,0.543,0.362,0.896,0.362s0.664-0.121,0.906-0.362
				c0.361-0.373,0.392-0.977,0.392-1.53C45.623,47.115,45.592,46.511,45.231,46.149z"/>
			<path fill="#939598" d="M52.599,50.154h-0.674l-1.299-3.844l-1.288,3.844h-0.674l-1.57-4.951h0.785l1.137,3.976l1.299-3.976
				h0.624l1.308,3.976l1.128-3.976h0.784L52.599,50.154z"/>
			<path fill="#939598" d="M55.621,47.87c0,1.086,0.503,1.71,1.459,1.71c0.573,0,0.906-0.17,1.298-0.563l0.493,0.432
				c-0.503,0.503-0.976,0.765-1.811,0.765c-1.319,0-2.164-0.785-2.164-2.537c0-1.609,0.774-2.536,2.032-2.536
				c1.288,0,2.033,0.916,2.033,2.405v0.322H55.621z M58.085,46.501c-0.211-0.453-0.624-0.745-1.157-0.745s-0.945,0.292-1.156,0.745
				c-0.122,0.262-0.132,0.422-0.151,0.825h2.626C58.216,46.924,58.207,46.763,58.085,46.501z"/>
			<path fill="#939598" d="M63.185,46.149c-0.271-0.271-0.474-0.362-0.855-0.362c-0.725,0-1.188,0.574-1.188,1.328v3.04h-0.726
				v-4.951h0.726v0.604c0.271-0.413,0.814-0.664,1.389-0.664c0.473,0,0.835,0.111,1.188,0.463L63.185,46.149z"/>
			<path fill="#939598" d="M65.111,47.87c0,1.086,0.503,1.71,1.459,1.71c0.573,0,0.905-0.17,1.298-0.563l0.493,0.432
				c-0.504,0.503-0.977,0.765-1.811,0.765c-1.319,0-2.164-0.785-2.164-2.537c0-1.609,0.774-2.536,2.032-2.536
				c1.288,0,2.032,0.916,2.032,2.405v0.322H65.111z M67.576,46.501c-0.211-0.453-0.624-0.745-1.157-0.745s-0.946,0.292-1.157,0.745
				c-0.121,0.262-0.131,0.422-0.15,0.825h2.626C67.707,46.924,67.697,46.763,67.576,46.501z"/>
			<path fill="#939598" d="M72.928,50.154v-0.594c-0.412,0.523-0.846,0.654-1.409,0.654c-0.514,0-0.945-0.171-1.208-0.433
				c-0.492-0.503-0.604-1.309-0.604-2.104c0-0.794,0.111-1.609,0.604-2.103c0.263-0.261,0.694-0.433,1.208-0.433
				c0.554,0,0.986,0.122,1.399,0.634v-2.787h0.724v7.165H72.928z M71.68,45.787c-1.087,0-1.248,0.926-1.248,1.892
				c0,0.966,0.161,1.893,1.248,1.893c1.077,0,1.238-0.926,1.238-1.893C72.918,46.712,72.757,45.787,71.68,45.787z"/>
			<path fill="#939598" d="M81.288,49.782c-0.261,0.261-0.694,0.433-1.207,0.433c-0.554,0-0.986-0.131-1.399-0.654v0.594h-0.725
				v-7.165h0.725v2.787c0.413-0.512,0.855-0.634,1.399-0.634c0.513,0,0.946,0.171,1.207,0.433c0.493,0.494,0.604,1.309,0.604,2.103
				C81.892,48.474,81.781,49.279,81.288,49.782z M79.929,45.787c-1.087,0-1.248,0.926-1.248,1.892c0,0.966,0.161,1.893,1.248,1.893
				c1.077,0,1.238-0.926,1.238-1.893C81.167,46.712,81.006,45.787,79.929,45.787z"/>
			<path fill="#939598" d="M84.658,51.352c-0.102,0.272-0.212,0.454-0.353,0.583c-0.262,0.252-0.614,0.343-0.967,0.343h-0.312
				v-0.645h0.221c0.504,0,0.655-0.161,0.816-0.613l0.352-0.966l-1.781-4.851h0.785l1.359,3.976l1.348-3.976h0.785L84.658,51.352z"/>
		</g>
	</g>
	<g>
		<g>
			<path fill="#939598" d="M97.1,42.728c-0.21,0.223-0.247,0.469-0.247,1.643v1.951c0,1.272-0.05,1.877-0.062,2.013
				c-0.147,1.062-0.666,2.21-3.024,2.21c-1.952,0-2.655-0.765-2.928-1.617c-0.136-0.445-0.148-1.086-0.148-1.778v-0.605v-2.581
				c0-0.581,0-0.964-0.173-1.173c-0.123-0.161-0.357-0.284-0.802-0.358v-0.16c0.506,0.037,1.062,0.049,1.506,0.049s1,0,1.544-0.049
				v0.16c-0.173,0.037-0.593,0.136-0.753,0.296c-0.21,0.235-0.247,0.494-0.247,1.655v2.877c0,1.655,0.11,2.803,2.123,2.803
				c2.026,0,2.112-1.161,2.112-2.815V43.95v-0.21c0-0.457-0.013-0.766-0.16-0.963c-0.124-0.149-0.371-0.272-0.815-0.346v-0.16
				c0.507,0.037,0.951,0.049,1.396,0.049c0.445,0,0.89,0,1.433-0.049v0.16C97.693,42.468,97.26,42.567,97.1,42.728z"/>
			<path fill="#939598" d="M102.804,50.409c-0.246,0-0.79,0.012-1.309,0.037v-0.16c0.234-0.037,0.407-0.111,0.519-0.21
				c0.223-0.223,0.247-0.618,0.26-1.21c0.012-0.271,0.012-0.716,0.012-1.173c0-0.568-0.024-0.717-0.049-0.89
				c-0.1-0.753-0.593-1.074-1.297-1.074c-0.42,0-0.741,0.049-1.05,0.234v2.792c0,1.025,0.062,1.049,0.123,1.173
				c0.1,0.21,0.47,0.309,0.667,0.358v0.16c-0.433-0.024-0.901-0.037-1.37-0.037c-0.247,0-0.815,0.012-1.297,0.037v-0.16
				c0.346-0.062,0.556-0.161,0.691-0.321c0.197-0.222,0.223-0.605,0.223-1.902v-1.05v-0.309c0-0.642-0.05-1.062-0.89-1.198v-0.124
				c0.371-0.012,0.84-0.049,1.272-0.111c0.173-0.025,0.37-0.086,0.519-0.161l0.074,0.05l-0.037,0.679
				c0.469-0.482,1.074-0.679,1.667-0.679c0.84,0,1.42,0.358,1.63,1.111c0.049,0.197,0.087,0.618,0.087,0.914v1.581
				c0,0.827,0.024,0.976,0.147,1.148c0.149,0.21,0.433,0.297,0.828,0.371v0.16C103.891,50.421,103.274,50.409,102.804,50.409z"/>
			<path fill="#939598" d="M105.991,50.409c-0.247,0-0.89,0.012-1.371,0.037v-0.16c0.358-0.062,0.567-0.161,0.691-0.321
				c0.161-0.198,0.223-0.321,0.223-1.988v-0.964v-0.309c0-0.642-0.05-1.062-0.89-1.198v-0.124c0.469-0.037,0.938-0.037,1.42-0.136
				c0.148-0.037,0.31-0.099,0.444-0.16l0.074,0.049c-0.074,0.815-0.086,2.334-0.086,2.964v0.284v0.432v0.272
				c0,0.333,0.012,0.654,0.161,0.839c0.136,0.173,0.383,0.285,0.814,0.358v0.16C107.139,50.421,106.459,50.409,105.991,50.409z
				 M105.954,43.518c-0.371,0-0.618-0.234-0.618-0.605c0-0.383,0.271-0.605,0.643-0.605c0.358,0,0.617,0.222,0.617,0.593
				C106.595,43.295,106.336,43.518,105.954,43.518z"/>
			<path fill="#939598" d="M112.263,46.148l-1.79,4.322h-0.667l-1.63-4.322c-0.137-0.346-0.235-0.654-0.605-0.741v-0.161
				c0.234,0.025,0.827,0.037,1.099,0.037c0.358,0,0.84,0,1.1-0.037v0.161c-0.444,0.124-0.543,0.26-0.543,0.457
				c0,0.148,0.062,0.358,0.147,0.593l0.68,1.939c0.16,0.457,0.271,0.815,0.37,1.198c0.024-0.062,0.223-0.679,0.309-0.938
				l0.753-2.235c0.074-0.222,0.137-0.444,0.137-0.592c0-0.272-0.247-0.333-0.543-0.42v-0.161c0.185,0.025,0.679,0.037,0.889,0.037
				c0.309,0,0.691-0.012,0.901-0.037v0.161C112.498,45.494,112.424,45.765,112.263,46.148z"/>
			<path fill="#939598" d="M114.116,47.346c0,0-0.013,0.185-0.013,0.271c0,1.433,0.568,2.297,2.087,2.297
				c0.408,0,0.766-0.074,1.111-0.223l0.062,0.111c-0.37,0.445-1.024,0.704-1.827,0.704c-1.531,0-2.445-0.963-2.445-2.593
				c0-1.63,0.976-2.717,2.433-2.717c0.778,0,1.371,0.271,1.692,0.778c0.21,0.321,0.284,0.667,0.284,1.26v0.111H114.116z
				 M116.413,46.791c0-0.865-0.296-1.235-0.976-1.235c-0.766,0-1.186,0.494-1.297,1.519l2.272-0.222V46.791z"/>
			<path fill="#939598" d="M121.575,46.346c-0.26,0-0.482-0.136-0.482-0.42c0-0.098,0.05-0.222,0.05-0.222
				c-0.42,0-0.84,0.124-1.148,0.346v2.754c0,0.79,0.086,0.876,0.148,0.988c0.099,0.173,0.333,0.383,1.05,0.494v0.16
				c-0.482-0.024-0.84-0.037-1.605-0.037c-0.482,0-0.976,0.012-1.471,0.037v-0.16c0.482-0.086,0.692-0.247,0.803-0.506
				c0.1-0.26,0.112-0.642,0.112-1.136v-0.581v-1.05v-0.309c0-0.642-0.05-1.062-0.89-1.198v-0.124
				c0.396-0.037,0.691-0.012,1.309-0.124c0.173-0.025,0.334-0.074,0.481-0.148l0.075,0.062l-0.05,0.729
				c0.383-0.408,0.778-0.704,1.371-0.704c0.395,0,0.777,0.173,0.777,0.617C122.105,46.173,121.883,46.346,121.575,46.346z"/>
			<path fill="#939598" d="M124.205,50.508c-0.494,0-0.976-0.062-1.445-0.222v-0.161v-0.234c0-0.198,0-0.395-0.049-0.815h0.16
				c0.284,0.556,0.544,1.075,1.247,1.075c0.976,0,1.137-0.543,1.137-0.877c0-0.593-0.458-0.803-0.767-0.963l-0.604-0.322
				c-0.42-0.222-1.037-0.568-1.037-1.396c0-0.654,0.346-1.013,0.716-1.198c0.334-0.161,0.68-0.185,0.853-0.185h0.099
				c0.481,0,0.704,0.086,1.05,0.086c0.086,0,0.16-0.025,0.234-0.074l0.074,0.037c-0.013,0.086-0.024,0.408-0.024,0.556
				c0,0.457,0.024,0.519,0.024,0.642h-0.161c-0.21-0.432-0.357-0.914-1.012-0.914c-0.247,0-1.05,0-1.05,0.79
				c0,0.432,0.383,0.655,0.617,0.766l0.741,0.371c0.457,0.235,1.099,0.556,1.099,1.458
				C126.106,50.076,125.155,50.508,124.205,50.508z"/>
			<path fill="#939598" d="M128.292,50.409c-0.247,0-0.889,0.012-1.371,0.037v-0.16c0.358-0.062,0.568-0.161,0.691-0.321
				c0.161-0.198,0.223-0.321,0.223-1.988v-0.964v-0.309c0-0.642-0.05-1.062-0.89-1.198v-0.124c0.47-0.037,0.939-0.037,1.42-0.136
				c0.148-0.037,0.31-0.099,0.445-0.16l0.074,0.049c-0.074,0.815-0.087,2.334-0.087,2.964v0.284v0.432v0.272
				c0,0.333,0.013,0.654,0.161,0.839c0.136,0.173,0.383,0.285,0.814,0.358v0.16C129.44,50.421,128.761,50.409,128.292,50.409z
				 M128.254,43.518c-0.37,0-0.617-0.234-0.617-0.605c0-0.383,0.271-0.605,0.642-0.605c0.358,0,0.618,0.222,0.618,0.593
				C128.897,43.295,128.637,43.518,128.254,43.518z"/>
			<path fill="#939598" d="M132.354,50.533c-0.803,0-1.173-0.333-1.333-0.84c-0.087-0.271-0.087-0.741-0.087-1.099
				c0-0.186,0.024-2.062,0.037-2.89h-0.716v-0.161c0.456-0.124,0.729-0.321,0.901-0.581c0.185-0.296,0.259-0.692,0.309-1.173h0.506
				c-0.037,0.556-0.037,1.025-0.049,1.532l1.716-0.062v0.482l-1.716-0.037v2.778v0.148c0,0.766,0.037,1.42,1.074,1.42
				c0.222,0,0.444-0.037,0.654-0.099l0.062,0.148C133.565,50.212,133.218,50.533,132.354,50.533z"/>
			<path fill="#939598" d="M138.899,46.148l-1.605,4.471c-0.358,1-0.617,1.729-0.877,2.136c-0.345,0.556-0.814,0.877-1.63,0.877
				c-0.433,0-1.013-0.111-1.013-0.643c0-0.309,0.21-0.506,0.519-0.506c0.284,0,0.52,0.161,0.52,0.47
				c0,0.222-0.174,0.358-0.174,0.358h0.111c0.988,0,1.284-0.716,1.556-1.494l0.321-0.939l-1.853-4.742
				c-0.11-0.284-0.173-0.618-0.604-0.729v-0.161c0.16,0.025,0.84,0.037,1.099,0.037c0.371,0,0.84-0.012,1.1-0.037v0.161
				c-0.223,0.074-0.544,0.148-0.544,0.445c0,0.148,0.05,0.284,0.099,0.42l0.803,2.223c0.062,0.16,0.284,0.803,0.384,1.21
				l0.963-3.211c0.037-0.136,0.16-0.494,0.16-0.654c0-0.309-0.32-0.371-0.567-0.433v-0.161c0.185,0.025,0.703,0.037,0.913,0.037
				c0.31,0,0.704-0.012,0.914-0.037v0.161C139.122,45.494,139.01,45.84,138.899,46.148z"/>
		</g>
		<g>
			<path fill="#939598" d="M144.222,50.52c-1.767,0-1.864-1.42-1.864-2.075c0-1.902,1.086-3.248,2.556-3.248
				c1.766,0,1.865,1.42,1.865,2.074C146.779,49.174,145.692,50.52,144.222,50.52z M145.828,47.186c0-0.691-0.013-1.63-0.926-1.63
				c-1.199,0-1.594,1.938-1.594,2.927v0.049c0,0.691,0.013,1.63,0.927,1.63c1.197,0,1.593-1.939,1.593-2.927V47.186z"/>
			<path fill="#939598" d="M151.693,42.456c-0.457,0-0.469-0.333-0.469-0.408v-0.012c0-0.285,0.259-0.408,0.259-0.408
				s-0.148-0.024-0.309-0.024c-1.247,0-1.433,1.148-1.581,2.186c-0.135,1-0.222,1.568-0.222,1.568l1.396-0.062l-0.074,0.469
				l-1.371-0.037c0,0-0.284,1.877-0.469,3.112c-0.383,2.557-0.52,3.409-1.075,4.138c-0.271,0.358-0.753,0.642-1.346,0.642
				c-1,0-1-0.556-1-0.618c0-0.42,0.32-0.506,0.506-0.506c0.284,0,0.457,0.173,0.457,0.395c0,0.296-0.234,0.396-0.234,0.396
				s0.062,0.024,0.197,0.024c0.21,0,0.617-0.086,0.865-0.457c0.32-0.494,0.407-1.383,0.53-2.272
				c0.271-2.013,0.667-4.854,0.667-4.854h-0.901l0.036-0.173c0.248-0.012,0.568-0.062,0.767-0.247c0.16-0.148,0.21-0.507,0.26-0.839
				c0.073-0.605,0.173-1.186,0.296-1.569c0.247-0.766,0.827-1.63,2.21-1.63c0.828,0,1.137,0.346,1.137,0.654
				C152.224,42.407,151.891,42.456,151.693,42.456z"/>
		</g>
		<g>
			<path fill="#939598" d="M161.202,42.728c-0.21,0.223-0.246,0.469-0.246,1.643v6.113h-0.47l-4.854-6.323
				c-0.11-0.148-0.222-0.284-0.297-0.457v5.076v0.21c0,0.457,0.014,0.766,0.161,0.963c0.124,0.148,0.37,0.271,0.815,0.346v0.161
				c-0.507-0.037-0.865-0.049-1.31-0.049s-0.654,0-1.297,0.049v-0.161c0.161-0.037,0.593-0.136,0.754-0.296
				c0.21-0.222,0.247-0.482,0.247-1.655v-4.384c0-0.581,0-0.964-0.173-1.173c-0.124-0.161-0.358-0.284-0.803-0.358v-0.16
				c0.444,0.037,0.667,0.049,1.111,0.049c0.197,0,0.481-0.013,0.666-0.037l4.409,5.743c0.161,0.197,0.334,0.469,0.408,0.592V43.95
				v-0.21c0-0.457-0.013-0.766-0.161-0.963c-0.123-0.149-0.37-0.272-0.815-0.346v-0.16c0.507,0.037,0.84,0.049,1.285,0.049
				c0.444,0,0.777,0,1.321-0.049v0.16C161.795,42.468,161.363,42.567,161.202,42.728z"/>
			<path fill="#939598" d="M163.474,47.346c0,0-0.013,0.185-0.013,0.271c0,1.433,0.568,2.297,2.087,2.297
				c0.407,0,0.766-0.074,1.111-0.223l0.062,0.111c-0.37,0.445-1.024,0.704-1.827,0.704c-1.531,0-2.445-0.963-2.445-2.593
				c0-1.63,0.976-2.717,2.433-2.717c0.778,0,1.371,0.271,1.692,0.778c0.21,0.321,0.284,0.667,0.284,1.26v0.111H163.474z
				 M165.771,46.791c0-0.865-0.297-1.235-0.976-1.235c-0.766,0-1.186,0.494-1.297,1.519l2.272-0.222V46.791z"/>
			<path fill="#939598" d="M174.76,46.259l-1.58,4.211h-0.691l-1.062-3.68c-0.012-0.05-0.099-0.358-0.136-0.568
				c-0.037,0.197-0.099,0.383-0.16,0.568l-1.223,3.68h-0.691l-1.421-4.322c-0.099-0.284-0.185-0.654-0.593-0.741v-0.161
				c0.234,0.025,0.815,0.037,1.074,0.037c0.371,0,0.828,0,1.087-0.037v0.161c-0.16,0.037-0.567,0.136-0.567,0.445
				c0,0.161,0.036,0.271,0.086,0.433l0.58,1.938c0.1,0.346,0.284,1.025,0.309,1.198c0.038-0.198,0.1-0.396,0.161-0.593l1.186-3.557
				c0.037,0.025,0.26,0.037,0.408,0.037c0.16,0,0.395-0.012,0.432-0.037l1.024,3.446c0.111,0.371,0.124,0.469,0.148,0.605
				c0.148-0.407,0.938-3.063,0.938-3.063c0.062-0.222,0.087-0.321,0.087-0.419c0-0.272-0.197-0.333-0.543-0.433v-0.161
				c0.185,0.025,0.691,0.037,0.901,0.037c0.309,0,0.679-0.012,0.889-0.037v0.161C174.959,45.506,174.896,45.902,174.76,46.259z"/>
			<path fill="#939598" d="M185.615,42.728c-0.209,0.223-0.247,0.469-0.247,1.643v4.396c0,0.58,0,0.963,0.174,1.173
				c0.124,0.161,0.357,0.284,0.803,0.358v0.161c-0.507-0.037-1.062-0.049-1.508-0.049c-0.443,0-0.999,0-1.543,0.049v-0.161
				c0.173-0.037,0.593-0.136,0.754-0.296c0.21-0.235,0.246-0.494,0.246-1.655v-1.853h-4.174v2.285v0.21
				c0,0.457,0.013,0.766,0.16,0.963c0.124,0.148,0.371,0.271,0.815,0.346v0.161c-0.506-0.037-1.062-0.049-1.507-0.049
				c-0.444,0-1,0-1.544,0.049v-0.161c0.161-0.037,0.594-0.136,0.754-0.296c0.21-0.222,0.247-0.482,0.247-1.655v-4.384
				c0-0.581,0-0.964-0.173-1.173c-0.124-0.161-0.358-0.284-0.804-0.358v-0.16c0.507,0.037,1.063,0.049,1.508,0.049
				c0.443,0,1,0,1.543-0.049v0.16c-0.172,0.037-0.593,0.136-0.753,0.296c-0.21,0.235-0.247,0.494-0.247,1.655v1.569h4.174V43.95
				v-0.21c0-0.457-0.013-0.766-0.16-0.963c-0.123-0.149-0.37-0.272-0.815-0.346v-0.16c0.507,0.037,1.062,0.049,1.507,0.049
				s1,0,1.544-0.049v0.16C186.208,42.468,185.776,42.567,185.615,42.728z"/>
			<path fill="#939598" d="M190.566,50.533c-0.395,0-0.642-0.223-0.654-0.581c-0.369,0.42-0.938,0.581-1.37,0.581
				c-0.963,0-1.568-0.519-1.568-1.322c0-0.753,0.481-1.124,0.988-1.271c0.617-0.186,1.581-0.186,1.914-0.186v-0.803
				c0-0.259-0.013-0.469-0.025-0.642c-0.037-0.333-0.247-0.766-0.95-0.766c-0.432,0-0.605,0.062-0.605,0.062
				s0.147,0.099,0.147,0.371c0,0.284-0.172,0.47-0.457,0.47c-0.296,0-0.481-0.149-0.481-0.445c0-0.445,0.631-0.815,1.643-0.815
				c1.31,0,1.544,0.593,1.643,0.976c0.051,0.21,0.062,0.556,0.062,0.828v0.346c0,0.297-0.025,1.766-0.025,1.828
				c0,0.321,0.025,0.519,0.161,0.63c0.099,0.087,0.259,0.111,0.506,0.111h0.147l0.038,0.099
				C191.271,50.372,190.925,50.533,190.566,50.533z M189.875,48.013c-0.384,0.024-1.1,0.087-1.434,0.26
				c-0.382,0.209-0.444,0.567-0.444,0.827c0,0.568,0.371,0.914,1,0.914c0.272,0,0.631-0.062,0.878-0.172V48.013z"/>
			<path fill="#939598" d="M196.359,46.148l-1.792,4.322h-0.666l-1.63-4.322c-0.136-0.346-0.235-0.654-0.605-0.741v-0.161
				c0.234,0.025,0.827,0.037,1.1,0.037c0.357,0,0.839,0,1.099-0.037v0.161c-0.445,0.124-0.543,0.26-0.543,0.457
				c0,0.148,0.062,0.358,0.147,0.593l0.679,1.939c0.161,0.457,0.272,0.815,0.371,1.198c0.024-0.062,0.223-0.679,0.31-0.938
				l0.753-2.235c0.073-0.222,0.135-0.444,0.135-0.592c0-0.272-0.247-0.333-0.543-0.42v-0.161c0.186,0.025,0.679,0.037,0.89,0.037
				c0.309,0,0.691-0.012,0.902-0.037v0.161C196.593,45.494,196.518,45.765,196.359,46.148z"/>
			<path fill="#939598" d="M198.21,47.346c0,0-0.012,0.185-0.012,0.271c0,1.433,0.567,2.297,2.086,2.297
				c0.407,0,0.766-0.074,1.112-0.223l0.061,0.111c-0.37,0.445-1.024,0.704-1.828,0.704c-1.53,0-2.444-0.963-2.444-2.593
				c0-1.63,0.976-2.717,2.433-2.717c0.778,0,1.372,0.271,1.692,0.778c0.21,0.321,0.283,0.667,0.283,1.26v0.111H198.21z
				 M200.507,46.791c0-0.865-0.297-1.235-0.977-1.235c-0.765,0-1.185,0.494-1.296,1.519l2.272-0.222V46.791z"/>
			<path fill="#939598" d="M206.977,50.409c-0.246,0-0.789,0.012-1.309,0.037v-0.16c0.235-0.037,0.407-0.111,0.52-0.21
				c0.222-0.223,0.246-0.618,0.259-1.21c0.012-0.271,0.012-0.716,0.012-1.173c0-0.568-0.024-0.717-0.049-0.89
				c-0.099-0.753-0.593-1.074-1.296-1.074c-0.421,0-0.742,0.049-1.05,0.234v2.792c0,1.025,0.062,1.049,0.122,1.173
				c0.1,0.21,0.47,0.309,0.667,0.358v0.16c-0.432-0.024-0.9-0.037-1.37-0.037c-0.248,0-0.815,0.012-1.297,0.037v-0.16
				c0.346-0.062,0.556-0.161,0.691-0.321c0.198-0.222,0.223-0.605,0.223-1.902v-1.05v-0.309c0-0.642-0.049-1.062-0.89-1.198v-0.124
				c0.371-0.012,0.841-0.049,1.272-0.111c0.173-0.025,0.371-0.086,0.519-0.161l0.074,0.05l-0.037,0.679
				c0.469-0.482,1.075-0.679,1.667-0.679c0.84,0,1.42,0.358,1.631,1.111c0.049,0.197,0.086,0.618,0.086,0.914v1.581
				c0,0.827,0.025,0.976,0.148,1.148c0.147,0.21,0.433,0.297,0.827,0.371v0.16C208.065,50.421,207.448,50.409,206.977,50.409z"/>
		</g>
	</g>
</g>
</svg>
